<svg width="24" height="25" viewBox="0 0 24 25" fill="none" xmlns="http://www.w3.org/2000/svg">
<g opacity="0.6">
<path fill-rule="evenodd" clip-rule="evenodd" d="M12.001 17.041C11.587 17.041 11.251 16.705 11.251 16.291V4.25C11.251 3.836 11.587 3.5 12.001 3.5C12.415 3.5 12.751 3.836 12.751 4.25V16.291C12.751 16.705 12.415 17.041 12.001 17.041Z" fill="white"/>
<path fill-rule="evenodd" clip-rule="evenodd" d="M12.0008 17.041C11.8018 17.041 11.6098 16.962 11.4698 16.82L8.55383 13.893C8.26183 13.599 8.26283 13.124 8.55583 12.832C8.84983 12.54 9.32383 12.54 9.61583 12.834L12.0008 15.229L14.3858 12.834C14.6778 12.54 15.1518 12.54 15.4458 12.832C15.7388 13.124 15.7398 13.599 15.4478 13.893L12.5318 16.82C12.3918 16.962 12.1998 17.041 12.0008 17.041Z" fill="white"/>
<mask id="mask0_3389_51791" style="mask-type:luminance" maskUnits="userSpaceOnUse" x="2" y="8" width="20" height="14">
<path fill-rule="evenodd" clip-rule="evenodd" d="M2 8.23242H21.9998V21.9764H2V8.23242Z" fill="white"/>
</mask>
<g mask="url(#mask0_3389_51791)">
<path fill-rule="evenodd" clip-rule="evenodd" d="M17.575 21.9764H6.435C3.99 21.9764 2 19.9874 2 17.5414V12.6564C2 10.2164 3.985 8.23242 6.426 8.23242H7.367C7.781 8.23242 8.117 8.56842 8.117 8.98242C8.117 9.39642 7.781 9.73242 7.367 9.73242H6.426C4.812 9.73242 3.5 11.0434 3.5 12.6564V17.5414C3.5 19.1604 4.816 20.4764 6.435 20.4764H17.575C19.187 20.4764 20.5 19.1634 20.5 17.5514V12.6674C20.5 11.0484 19.183 9.73242 17.566 9.73242H16.634C16.22 9.73242 15.884 9.39642 15.884 8.98242C15.884 8.56842 16.22 8.23242 16.634 8.23242H17.566C20.011 8.23242 22 10.2224 22 12.6674V17.5514C22 19.9914 20.014 21.9764 17.575 21.9764Z" fill="white"/>
</g>
</g>
</svg>
