<svg width="28" height="27" viewBox="0 0 28 27" fill="none" xmlns="http://www.w3.org/2000/svg">
<g filter="url(#filter0_d_3389_51802)">
<path fill-rule="evenodd" clip-rule="evenodd" d="M14.001 18.041C13.587 18.041 13.251 17.705 13.251 17.291V5.25C13.251 4.836 13.587 4.5 14.001 4.5C14.415 4.5 14.751 4.836 14.751 5.25V17.291C14.751 17.705 14.415 18.041 14.001 18.041Z" fill="white"/>
<path fill-rule="evenodd" clip-rule="evenodd" d="M14.0008 18.041C13.8018 18.041 13.6098 17.962 13.4698 17.82L10.5538 14.893C10.2618 14.599 10.2628 14.124 10.5558 13.832C10.8498 13.54 11.3238 13.54 11.6158 13.834L14.0008 16.229L16.3858 13.834C16.6778 13.54 17.1518 13.54 17.4458 13.832C17.7388 14.124 17.7398 14.599 17.4478 14.893L14.5318 17.82C14.3918 17.962 14.1998 18.041 14.0008 18.041Z" fill="white"/>
<mask id="mask0_3389_51802" style="mask-type:luminance" maskUnits="userSpaceOnUse" x="4" y="9" width="20" height="14">
<path fill-rule="evenodd" clip-rule="evenodd" d="M4 9.23242H23.9998V22.9764H4V9.23242Z" fill="white"/>
</mask>
<g mask="url(#mask0_3389_51802)">
<path fill-rule="evenodd" clip-rule="evenodd" d="M19.575 22.9764H8.435C5.99 22.9764 4 20.9874 4 18.5414V13.6564C4 11.2164 5.985 9.23242 8.426 9.23242H9.367C9.781 9.23242 10.117 9.56842 10.117 9.98242C10.117 10.3964 9.781 10.7324 9.367 10.7324H8.426C6.812 10.7324 5.5 12.0434 5.5 13.6564V18.5414C5.5 20.1604 6.816 21.4764 8.435 21.4764H19.575C21.187 21.4764 22.5 20.1634 22.5 18.5514V13.6674C22.5 12.0484 21.183 10.7324 19.566 10.7324H18.634C18.22 10.7324 17.884 10.3964 17.884 9.98242C17.884 9.56842 18.22 9.23242 18.634 9.23242H19.566C22.011 9.23242 24 11.2224 24 13.6674V18.5514C24 20.9914 22.014 22.9764 19.575 22.9764Z" fill="white"/>
</g>
</g>
<defs>
<filter id="filter0_d_3389_51802" x="-2" y="-2.5" width="32" height="32" filterUnits="userSpaceOnUse" color-interpolation-filters="sRGB">
<feFlood flood-opacity="0" result="BackgroundImageFix"/>
<feColorMatrix in="SourceAlpha" type="matrix" values="0 0 0 0 0 0 0 0 0 0 0 0 0 0 0 0 0 0 127 0" result="hardAlpha"/>
<feOffset/>
<feGaussianBlur stdDeviation="2"/>
<feComposite in2="hardAlpha" operator="out"/>
<feColorMatrix type="matrix" values="0 0 0 0 0.282353 0 0 0 0 1 0 0 0 0 0.772745 0 0 0 1 0"/>
<feBlend mode="normal" in2="BackgroundImageFix" result="effect1_dropShadow_3389_51802"/>
<feBlend mode="normal" in="SourceGraphic" in2="effect1_dropShadow_3389_51802" result="shape"/>
</filter>
</defs>
</svg>
